<?xml version="1.0" encoding="UTF-8" standalone="no"?>
<!-- Created with Inkscape (http://www.inkscape.org/) -->

<svg
   xmlns:dc="http://purl.org/dc/elements/1.1/"
   xmlns:cc="http://creativecommons.org/ns#"
   xmlns:rdf="http://www.w3.org/1999/02/22-rdf-syntax-ns#"
   xmlns:svg="http://www.w3.org/2000/svg"
   xmlns="http://www.w3.org/2000/svg"
   xmlns:sodipodi="http://sodipodi.sourceforge.net/DTD/sodipodi-0.dtd"
   xmlns:inkscape="http://www.inkscape.org/namespaces/inkscape"
   id="svg4136"
   version="1.1"
   inkscape:version="0.91 r13725"
   width="450.47122"
   height="226.00032"
   viewBox="0 0 450.47122 226.00032"
   sodipodi:docname="226-logo.svg">
  <metadata
     id="metadata4142">
    <rdf:RDF>
      <cc:Work
         rdf:about="">
        <dc:format>image/svg+xml</dc:format>
        <dc:type
           rdf:resource="http://purl.org/dc/dcmitype/StillImage" />
        <dc:title></dc:title>
      </cc:Work>
    </rdf:RDF>
  </metadata>
  <defs
     id="defs4140" />
  <sodipodi:namedview
     pagecolor="#ffffff"
     bordercolor="#666666"
     borderopacity="1"
     objecttolerance="10"
     gridtolerance="10"
     guidetolerance="10"
     inkscape:pageopacity="0"
     inkscape:pageshadow="2"
     inkscape:window-width="2560"
     inkscape:window-height="1377"
     id="namedview4138"
     showgrid="false"
     fit-margin-top="0"
     fit-margin-left="0"
     fit-margin-right="0"
     fit-margin-bottom="0"
     inkscape:zoom="3.7844203"
     inkscape:cx="226.78562"
     inkscape:cy="126.26809"
     inkscape:window-x="2552"
     inkscape:window-y="-8"
     inkscape:window-maximized="1"
     inkscape:current-layer="svg4136" />
  <path
     style="fill:#000000"
     d="m 308.77919,225.39902 c -0.56437,-0.32906 -2.18051,-1.37161 -3.59143,-2.31678 -1.41092,-0.94517 -4.0289,-2.46386 -5.81774,-3.37486 l -3.25245,-1.65636 -2.39292,0 c -1.31613,0 -2.79622,0.14243 -3.28911,0.3165 -0.64074,0.22628 -3.49175,0.32334 -10.00302,0.34051 -5.00876,0.0132 -12.91633,0.17318 -17.57237,0.35549 -6.45321,0.25268 -9.41068,0.26348 -12.44175,0.0454 -4.01018,-0.28852 -9.56446,-0.0228 -10.55891,0.50513 -0.23427,0.12437 -1.20417,1.43971 -2.15531,2.92298 -0.95115,1.48327 -1.83301,2.69685 -1.9597,2.69685 -1.14031,0 -3.17581,-2.0988 -5.48168,-5.65215 -1.86931,-2.88059 -1.88685,-2.88885 -4.33916,-2.04513 -1.31539,0.45255 -1.74256,0.48245 -3.69573,0.25863 -2.84874,-0.32645 -9.8051,-0.33108 -10.65724,-0.007 -0.40731,0.15486 -0.65803,0.44807 -0.65803,0.76959 0,0.44951 -0.16399,0.51856 -1.21852,0.51314 -1.71121,-0.009 -3.46753,-0.44836 -3.85966,-0.96596 -0.29432,-0.38847 -0.92563,-0.43866 -5.51542,-0.43843 -4.45082,2.2e-4 -5.29904,0.0636 -6.00403,0.44893 -0.45155,0.24677 -1.04847,0.44867 -1.32651,0.44867 -0.27803,0 -1.60219,0.86614 -2.94258,1.92475 -1.34039,1.05862 -2.68864,2.01782 -2.99612,2.13156 -0.63307,0.23419 0.0946,0.31309 -15.00159,-1.62639 l -11.28736,-1.45014 -8.08073,0.33498 c -4.4444,0.18424 -12.34081,0.30267 -17.54758,0.26317 -5.82095,-0.0441 -10.11858,0.0333 -11.15909,0.20097 -1.1275,0.18176 -4.08612,0.20671 -8.86539,0.0747 -6.72259,-0.18564 -7.26237,-0.16693 -8.59378,0.29783 -1.14376,0.39926 -2.35591,0.51889 -6.21938,0.61377 -5.593859,0.13739 -6.038379,0.072 -6.150979,-0.90479 -0.063,-0.5469 -0.25253,-0.73998 -0.85071,-0.86688 -1.38588,-0.29401 -3.55872,-0.23094 -5.38724,0.15637 -3.0156,0.63875 -4.76253,0.51851 -7.95237,-0.54737 -1.55201,-0.5186 -3.05271,-1.03348 -3.3349,-1.14418 -0.89859,-0.3525 -3.29148,-0.74321 -4.61755,-0.75394 -0.70546,-0.006 -3.53202,0.0814 -6.28124,0.19365 -4.88446,0.19939 -5.03965,0.1899 -6.79807,-0.41545 l -1.79949,-0.61977 -14.36573,-0.0538 -14.365731,-0.0538 -2.092005,-0.65265 c -3.592869,-1.12086 -5.613925,-1.35188 -8.763266,-1.00169 -1.520478,0.16907 -5.010246,0.30917 -7.7550405,0.31132 -2.744794,0.002 -5.149623,0.1047 -5.344064,0.22785 -0.625371,0.39611 -0.08177,0.72237 1.502178,0.90157 2.210596,0.2501 1.915633,0.66863 -0.443188,0.62885 -2.884758,-0.0487 -5.89769797,-0.34864 -5.45128297,-0.54275 0.211638,-0.092 3.02721397,-0.93115 6.25683597,-1.86471 6.1164385,-1.76803 9.4609515,-2.96133 10.2252765,-3.64831 0.639765,-0.57502 0.555292,-1.20648 -0.216668,-1.61962 l -0.665596,-0.35622 0.640202,-0.17122 c 0.482398,-0.12901 10.024174,-0.12483 10.992345,0.005 0.09261,0.0124 0.108007,0.25343 0.03421,0.53561 -0.160285,0.61294 -0.05623,0.62007 2.026133,0.13895 4.010635,-0.92664 14.239701,-1.14401 17.011092,-0.36148 0.71344,0.20145 2.1596,0.22569 4.745819,0.0796 2.04584,-0.11558 4.64321,-0.19046 5.77195,-0.16638 1.12874,0.024 4.70734,0.0746 7.95246,0.11242 3.24512,0.0378 9.01706,0.17049 12.82655,0.29494 6.29879,0.20578 7.05416,0.27869 8.33725,0.80484 1.99909,0.81974 3.17985,0.95729 5.65552,0.65886 1.90172,-0.22927 5.7384,-0.29952 11.275519,-0.20649 0.9171,0.0154 2.82184,-0.16648 4.23276,-0.4042 3.78188,-0.63718 11.20833,-1.03498 16.05087,-0.85978 l 4.25043,0.15379 0.89402,-0.95625 c 1.40709,-1.50502 1.4478,-1.59377 2.03109,-4.42817 0.89753,-4.36146 3.15479,-8.32541 6.57232,-11.5416 2.30277,-2.16711 5.34344,-4.20914 10.85114,-7.28732 5.69837,-3.18476 6.38263,-3.6848 11.44068,-8.36053 6.53509,-6.04114 12.27594,-12.0812 14.64171,-15.40481 1.14756,-1.61216 2.86562,-3.79701 3.81789,-4.8552 6.80346,-7.56008 9.19246,-15.36847 6.90517,-22.56939 -1.58918,-5.00317 -6.25182,-9.19507 -11.82507,-10.6312 -3.52917,-0.90941 -8.01658,-0.77578 -11.63049,0.34636 -3.19548,0.99221 -6.76462,3.59026 -8.86728,6.45466 l -0.92459,1.25956 -1.63298,0 c -3.91741,0 -5.50619,0.96612 -5.50619,3.34825 0,1.25313 0.009,1.2655 3.01424,4.43031 2.91542,3.06963 4.16863,4.88675 4.16863,6.04442 0,0.79124 -0.85128,1.01475 -2.95011,0.77458 -0.98764,-0.11302 -2.54607,-0.21222 -3.46317,-0.22045 -2.50066,-0.0225 -5.75181,-0.89246 -7.69592,-2.05942 -1.07451,-0.64498 -2.71651,-1.29012 -4.61756,-1.81421 -3.0103,-0.82989 -4.57743,-1.47785 -5.03873,-2.08335 -0.14223,-0.18667 -0.39284,-0.80116 -0.55693,-1.36553 -0.19173,-0.65945 -1.12388,-1.98865 -2.60856,-3.7197 -2.94806,-3.43771 -5.64845,-7.42441 -5.64845,-8.33951 0,-0.96083 1.34252,-2.17899 2.40004,-2.17773 0.44363,5.1e-4 2.58619,0.52 4.76127,1.15439 4.71381,1.37484 5.64546,1.42764 7.24883,0.41081 1.31491,-0.83389 1.94429,-1.59644 3.64962,-4.42183 2.24382,-3.71754 5.7382,-6.44022 12.25954,-9.55212 2.32133,-1.10771 5.31204,-2.80803 7.27044,-4.13349 3.00385,-2.03303 4.7264,-3.25727 11.92073,-8.472306 15.34007,-11.11972 23.98075,-17.2155 25.6136,-18.06972 0.51017,-0.26689 0.43755,-0.0729 -0.47671,1.27338 -1.41198,2.07923 -3.79541,6.9073 -4.99997,10.12835 -3.14748,8.416526 -3.68812,16.511056 -1.24403,18.626136 0.26136,0.22618 1.33709,0.84461 2.39052,1.3743 2.91398,1.46522 4.77733,2.81743 7.4065,5.37482 3.87981,3.77388 6.73812,8.64689 8.13792,13.87398 0.53444,1.99573 0.71478,3.36271 0.81219,6.15675 0.30968,8.88292 -2.5148,15.93267 -9.95376,24.84397 -2.70763,3.24354 -5.67945,5.80008 -19.60554,16.86585 -7.94095,6.30993 -12.01685,9.84256 -15.41108,13.35691 -2.92136,3.02474 -5.49619,6.1987 -5.49619,6.77509 0,0.42003 -1.36848,0.16675 19.32449,3.57649 20.57691,3.39062 18.462,3.33687 21.25705,0.54016 0.86255,-0.86307 3.82998,-4.39747 6.59427,-7.85422 7.72512,-9.66025 8.28842,-10.12213 8.44426,-6.92376 0.10243,2.10211 -0.20108,4.19363 -1.76788,12.18264 -0.69176,3.5273 -1.25901,6.80473 -1.26055,7.28318 -0.004,1.2255 1.60635,3.31563 2.67781,3.47577 0.90389,0.13509 9.14017,0.83973 12.67414,1.08431 l 2.39995,0.16609 -0.0912,-2.32254 c -0.10187,-2.59542 -0.34878,-3.06417 -2.07927,-3.94737 -0.59278,-0.30255 -0.962,-0.67479 -0.962,-0.96989 0,-0.82285 4.28198,-9.04351 5.65871,-10.86375 1.54164,-2.03829 12.45364,-12.61266 19.37535,-18.77588 5.11136,-4.55123 10.87784,-9.2154 14.65169,-11.85088 8.674,-6.05752 14.48984,-13.23505 16.39115,-20.2289 0.60602,-2.22919 0.67785,-7.53248 0.12857,-9.49165 -1.56425,-5.57929 -5.80017,-9.66207 -11.86958,-11.44045 -1.60663,-0.47075 -2.74463,-0.56925 -7.82607,-0.67732 -8.01213,-0.17043 -10.85898,0.36615 -12.62715,2.37999 -1.08722,1.23827 -1.3846,2.4126 -1.25555,4.95822 0.1425,2.81134 0.59441,3.69644 3.12713,6.12482 1.59785,1.53201 2.14201,2.27735 3.09902,4.2446 0.63848,1.31244 1.16085,2.6805 1.16085,3.04014 0,2.0831 -3.03327,2.20616 -11.09364,0.45004 l -3.52599,-0.7682 -3.06587,0.41856 c -4.43389,0.60533 -6.56248,0.0983 -9.91226,-2.36132 -1.59865,-1.17383 -1.64676,-1.24264 -1.64676,-2.35566 0,-1.56674 -0.5953,-2.49884 -4.87342,-7.6306 -3.72287,-4.46572 -5.47333,-7.11598 -5.47333,-8.28685 0,-1.45311 2.09235,-3.61609 3.498,-3.61609 0.37794,0 1.92923,0.48763 3.44729,1.08362 2.61518,1.02671 2.90159,1.08397 5.45371,1.09025 2.59755,0.006 2.75263,-0.0254 4.35037,-0.89121 1.95244,-1.05807 3.9137,-2.94361 7.01734,-6.74641 2.30706,-2.82678 4.43409,-4.64398 6.51133,-5.56283 2.25328,-0.99674 5.01424,-3.34978 19.4462,-16.573126 8.72224,-7.99179 11.97915,-10.87993 12.26919,-10.87993 0.0849,0 -0.0558,0.49061 -0.31254,1.09025 -1.08399,2.5314 -1.41405,4.54342 -1.42023,8.65792 -0.009,5.74735 0.9062,9.804816 3.32705,14.755746 1.81832,3.71863 3.08245,5.07881 6.35682,6.83978 1.52692,0.82118 3.3047,1.85667 3.95065,2.30109 8.81466,6.06464 13.94153,16.82559 12.91384,27.10524 -0.59284,5.93027 -2.29174,10.42666 -6.0275,15.95272 -4.4799,6.62687 -6.23996,8.30301 -21.37834,20.35909 -9.21323,7.33734 -12.6411,10.22414 -16.18587,13.63104 -3.44826,3.31412 -7.13317,7.85127 -6.8062,8.38032 0.0727,0.11753 9.4054,0.21368 20.73945,0.21368 l 20.60738,0 1.54504,-1.13738 c 1.78294,-1.31253 4.66504,-4.52893 8.21196,-9.16446 1.36657,-1.78598 2.51875,-3.2141 2.56044,-3.1736 0.0416,0.0405 -0.26446,1.21899 -0.68035,2.61888 -1.26203,4.24818 -1.65821,6.79686 -1.66768,10.7283 -0.007,2.86065 0.10597,4.05229 0.55462,5.85634 0.30979,1.24568 0.56324,2.48122 0.56324,2.74563 0,0.26441 0.13396,0.77476 0.29771,1.13413 0.25404,0.55754 0.46501,0.6534 1.43803,0.6534 0.62717,0 1.84961,-0.18545 2.71653,-0.41212 1.14,-0.29806 2.30409,-0.3807 4.20634,-0.29859 1.44658,0.0624 2.70399,0.18738 2.79427,0.27765 0.0903,0.0903 0.0182,0.34008 -0.16036,0.55513 -0.28778,0.34673 0.0359,0.39099 2.85916,0.39099 1.75101,0 4.56454,0.17224 6.25228,0.38275 5.06594,0.63188 12.79989,0.46249 12.51722,-0.27415 -0.0709,-0.1847 -0.97985,-0.97631 -2.01993,-1.75915 -8.65866,-6.51701 -14.26991,-17.41326 -16.38986,-31.82673 -1.39001,-9.45056 -1.12899,-22.61009 0.63604,-32.06637 4.17227,-22.35326 15.44696,-35.34393 33.66122,-38.78438 3.40635,-0.64342 12.73489,-0.64184 15.93309,0.003 2.90185,0.5848 5.89228,1.52117 8.49784,2.66084 2.33443,1.02109 4.77376,1.60647 6.72132,1.61297 2.42388,0.008 3.87931,0.47014 4.94722,1.57056 2.10091,2.16485 3.67091,1.10361 11.61493,-7.85111 4.46143,-5.029026 6.37304,-7.054596 6.65774,-7.054596 0.32041,0 0.23434,1.30347 -0.1954,2.960336 -1.29127,4.97824 -7.8188,18.27447 -13.13828,26.76199 l -1.66609,2.65831 0.13806,1.57445 c 0.0759,0.86594 0.55001,3.05698 1.05347,4.86899 1.23405,4.44132 1.69593,6.77948 1.69593,8.58505 0,1.78024 -0.40814,3.12746 -0.9475,3.12746 -0.84034,0 -3.68057,-2.39979 -9.86341,-8.33384 -2.20706,-2.11826 -5.21768,-5.00576 -6.69027,-6.41668 -3.11029,-2.98 -3.91964,-4.09599 -5.06654,-6.98616 -0.96466,-2.43093 -2.12064,-3.67866 -4.5389,-4.89913 -2.16951,-1.09493 -4.01061,-1.57968 -6.6272,-1.74492 -2.93004,-0.18504 -5.42493,0.3207 -8.20899,1.66408 -6.93782,3.34765 -10.75357,9.11125 -12.82057,19.36519 -1.27026,6.30166 -2.12425,15.56046 -1.43518,15.56046 0.1739,0 1.17552,-0.85934 2.22581,-1.90964 8.00397,-8.00397 18.58903,-11.13416 29.91879,-8.84754 6.34078,1.27971 11.91887,4.28385 16.59881,8.93944 6.06973,6.03817 9.7332,14.47909 10.19695,23.4946 0.14292,2.77851 0.12452,2.90259 -1.19692,8.08073 -1.23232,4.82889 -1.3531,5.56533 -1.47718,9.00694 -0.16098,4.46562 0.22095,6.65291 1.72743,9.89254 1.62556,3.49574 3.96632,6.61042 5.14506,6.84616 0.49759,0.0995 0.74289,0.32346 0.80068,0.73092 0.062,0.43707 0.51016,0.79373 1.75077,1.39328 1.37445,0.66423 2.38872,0.90211 5.77195,1.35374 5.95829,0.79538 8.64879,1.03761 11.58058,1.04262 2.07336,0.003 2.632,0.0826 2.74965,0.38924 0.0812,0.21164 0.41104,0.40323 0.73291,0.42574 0.32189,0.0225 -0.62686,0.12688 -2.10833,0.23191 -1.48146,0.10503 -3.55937,0.29757 -4.61756,0.42788 -2.4707,0.30424 -4.4369,0.094 -8.72205,-0.93251 -5.22007,-1.2505 -7.14084,-1.29011 -12.57001,-0.25918 -3.983,0.75631 -5.00805,0.855 -9.08912,0.87502 -3.33524,0.0163 -4.62805,0.10729 -4.70252,0.33074 -0.21454,0.64357 1.376,0.83269 6.82929,0.81204 3.05328,-0.0115 6.04828,0.06 6.65556,0.15893 0.60726,0.099 3.43552,0.0358 6.28501,-0.14026 4.15483,-0.2568 5.33328,-0.25639 5.95047,0.002 l 0.76959,0.32221 -1.02613,0.24058 c -0.56436,0.13232 -1.76382,0.47679 -2.66548,0.76549 -0.94252,0.3018 -2.25106,0.51189 -3.07837,0.49427 -1.82914,-0.039 -4.13259,-0.50715 -4.13259,-0.83995 0,-0.1673 -2.10104,-0.19377 -6.09261,-0.0768 -3.92205,0.11495 -8.19462,0.0642 -11.99282,-0.14248 -3.24511,-0.17657 -9.53653,-0.34197 -13.98093,-0.36753 -7.28071,-0.0419 -8.22041,-0.0959 -9.49165,-0.54596 -1.02381,-0.36244 -1.40104,-0.62325 -1.37492,-0.95059 0.0478,-0.59886 -0.26723,-0.64529 -5.51001,-0.81206 -4.49916,-0.14312 -5.42855,-0.0132 -5.42855,0.75912 0,0.42241 -0.0484,0.43956 -0.62034,0.22006 -0.22319,-0.0856 -0.40578,-0.33138 -0.40578,-0.54611 0,-0.32207 -0.23311,-0.35947 -1.33204,-0.2137 -1.53621,0.20379 -1.74633,0.29925 -1.74633,0.79338 0,0.19835 -0.21033,0.47319 -0.46738,0.61076 -0.28518,0.15262 -6.38557,0.27092 -15.64839,0.30344 -10.85392,0.0381 -15.18219,0.13391 -15.18514,0.33609 -0.003,0.15552 0.57771,1.43717 1.28884,2.84809 1.5271,3.02989 1.8461,4.23433 1.12027,4.22966 -0.26454,-0.002 -0.94275,-0.27231 -1.50712,-0.60136 z m 1.4034,-8.38051 c 0.5497,-0.29963 -1.30992,-0.60537 -2.41785,-0.39752 -0.65782,0.1234 -0.84717,0.26794 -0.73476,0.56089 0.12193,0.31769 0.40725,0.36028 1.46338,0.21846 0.72157,-0.0969 1.48173,-0.26872 1.68923,-0.38183 z m 27.53488,-4.22589 c -0.30289,-0.21214 -0.76315,-0.29119 -1.12871,-0.19384 l -0.61729,0.16438 0.64133,0.15576 c 0.35273,0.0857 0.86066,0.17289 1.12871,0.19384 0.46488,0.0363 0.46378,0.0216 -0.0241,-0.32014 z m 24.5744,-11.06242 c 5.44408,-1.61525 9.83594,-6.21641 11.85263,-12.4175 0.99698,-3.06561 1.29094,-5.80273 1.13087,-10.52969 -0.16854,-4.97618 -0.60044,-6.87251 -2.39128,-10.49899 -0.98136,-1.98728 -1.58695,-2.81918 -3.28139,-4.50762 -1.14287,-1.13883 -2.71284,-2.42789 -3.48885,-2.8646 -5.03303,-2.83239 -11.65628,-2.95589 -16.93104,-0.31568 -6.76154,3.38438 -10.50663,9.96103 -10.51335,18.4622 -0.006,7.79993 2.33053,13.89843 7.09208,18.50919 2.64234,2.55869 5.681,4.09879 9.06495,4.59447 1.94753,0.28527 5.7995,0.0625 7.46538,-0.43178 z m 62.95236,15.87785 c -1.48893,-0.21199 -1.37188,-0.65935 0.12827,-0.49019 0.776,0.0875 1.81495,0.16823 2.30877,0.17937 0.73612,0.0166 0.80543,0.0599 0.3848,0.24073 -0.53687,0.2307 -1.52192,0.25516 -2.82184,0.0701 z m 3.59143,-0.0701 c -0.19132,-0.30955 0.81882,-0.30955 1.53919,0 0.4135,0.17768 0.32931,0.22397 -0.43379,0.2385 -0.52076,0.01 -1.0182,-0.0974 -1.1054,-0.2385 z m -1.94173,-1.76254 c 0.23716,-0.44313 0.11505,-0.49085 -1.59429,-0.62311 -7.80257,-0.60368 -14.80594,-1.43394 -14.80594,-1.75528 0,-0.12105 0.16911,-0.22009 0.37577,-0.22009 0.20669,0 0.49934,-0.23088 0.65036,-0.51307 0.24162,-0.4515 0.53712,-0.51306 2.46262,-0.51306 2.09224,0 2.21509,0.0322 2.80514,0.73337 0.91935,1.09259 2.84549,1.25704 5.9519,0.50816 1.62484,-0.39172 2.37648,-0.68913 2.37648,-0.94036 0,-0.29901 0.29857,-0.33373 1.60331,-0.18641 3.35014,0.37824 3.82668,0.72759 1.41064,1.03415 -1.85749,0.23569 -2.24436,0.36958 -2.24436,0.77664 0,0.22588 0.43613,0.40989 1.21852,0.51411 0.67019,0.0893 1.68028,0.25243 2.24465,0.36257 1.02548,0.20013 1.02568,0.20043 0.34557,0.47891 -0.37428,0.15326 -0.75628,0.40121 -0.84886,0.55101 -0.0926,0.14979 -0.62732,0.27235 -1.18833,0.27235 -0.91702,0 -0.99408,-0.0485 -0.76318,-0.47989 z m 7.45715,-0.0328 c -0.30114,-0.19489 -0.23473,-0.24989 0.30553,-0.25296 0.37966,-0.002 0.76166,-0.11937 0.84886,-0.26046 0.19832,-0.32089 3.71577,-0.33231 4.21937,-0.0137 0.29365,0.18576 0.2399,0.26218 -0.25653,0.36488 -1.40359,0.29036 -4.75509,0.39661 -5.11723,0.16224 z m -328.19211,-9.42855 c -0.14938,-0.24172 2.06364,-0.73552 4.70661,-1.0502 1.33567,-0.15903 5.7395,0.22747 6.04234,0.5303 0.0776,0.0776 -1.3944,0.21467 -3.27123,0.30446 -1.87684,0.0898 -4.29359,0.22927 -5.37055,0.30993 -1.11862,0.0838 -2.02201,0.0433 -2.10717,-0.0945 z M 29.032217,76.497264 l 0,-69.058128 -1.268109,0 c -1.019618,0 -1.346359,-0.111721 -1.667451,-0.570142 -0.564338,-0.805707 -0.496365,-1.406706 0.211563,-1.870558 0.529888,-0.347196 1.803977,-0.390505 9.607371,-0.326578 6.461932,0.05294 9.081307,0.158622 9.297604,0.375127 0.38563,0.386 0.389414,1.572757 0.0062,1.955934 -0.162194,0.162193 -0.898117,0.355553 -1.635384,0.429689 l -1.340493,0.134793 -0.07476,5.900212 c -0.04112,3.245116 -0.01006,6.159949 0.06901,6.477406 0.140713,0.56487 0.221892,0.577194 3.802579,0.577194 l 3.658798,0 2.931466,-4.553424 c 3.781,-5.872977 8.17161,-12.906085 9.12819,-14.622002 0.41285,-0.74059 0.83723,-1.34664399865 0.94304,-1.346787 0.10582,-1.4399865e-4 0.1924,11.543631 0.1924,25.652833 l 0,25.653093 1.10536,0 c 1.3738,0 2.03715,0.459429 2.03715,1.41092 0,1.391406 -0.13763,1.41092 -9.94985,1.41092 -8.410749,0 -9.046643,-0.03159 -9.442606,-0.469128 -1.029802,-1.137918 -0.09366,-2.352712 1.813037,-2.352712 l 1.097309,0 0,-13.987981 0,-13.987978 -3.655566,0.07117 -3.655565,0.07118 -0.135557,11.672158 -0.135558,11.672157 -3.664745,28.603202 c -3.827708,29.875066 -6.991083,54.750956 -8.155523,64.132736 -0.376508,3.03347 -0.782522,5.62508 -0.902258,5.75912 -0.119733,0.13403 -0.217697,-30.83246 -0.217697,-68.814426 z m 54.072134,-16.490355 -0.0724,-3.185568 -3.59144,-0.160925 c -2.24987,-0.100814 -4.11847,-0.32556 -5.00235,-0.601662 -6.45621,-2.016764 -10.47229,-7.678128 -9.10391,-12.833553 0.91216,-3.436611 2.7198,-5.396444 7.43517,-8.061192 3.90347,-2.205927 4.91679,-2.992892 7.17602,-5.573032 1.46665,-1.674977 1.67559,-2.041914 1.67559,-2.94273 0,-1.883614 -1.11671,-3.304194 -2.59741,-3.304194 -1.46441,0 -3.48679,0.497799 -4.89414,1.204667 -1.30771,0.656828 -3.02622,2.020831 -3.02622,2.401949 0,0.12021 0.2886,0.643836 0.64133,1.163614 0.72549,1.069074 0.80398,1.867037 0.28279,2.874911 -1.13219,2.189422 -3.71141,2.596886 -5.38444,0.850628 -1.11671,-1.165594 -1.15649,-2.435692 -0.12551,-4.006477 2.06046,-3.139266 5.40526,-5.680103 8.81859,-6.698913 1.99064,-0.594167 6.03839,-0.600703 8.33725,-0.01347 4.88919,1.248936 9.19373,4.711735 11.37346,9.149417 1.57026,3.196861 1.96615,5.22177 1.96615,10.056326 l 0,3.866041 -1.49704,2.081533 c -4.61354,6.414831 -11.92331,16.480043 -12.11567,16.682725 -0.12778,0.134633 -0.25447,-1.128674 -0.29585,-2.950105 z m -0.27863,-16.717585 c -0.0851,-5.678954 -0.23377,-10.594579 -0.33034,-10.923613 -0.16774,-0.571554 -0.24209,-0.53243 -1.66635,0.876982 -1.75178,1.733489 -2.39766,3.089617 -2.77782,5.832433 -0.36464,2.630938 -0.35621,9.303312 0.0145,11.431832 0.41987,2.410993 1.16364,3.107736 3.31751,3.107736 l 1.5973,0 -0.15476,-10.32537 z m 16.49597,0.09986 0,-19.71715 -1.34679,-0.157092 c -1.9495,-0.227392 -2.75611,-1.472529 -1.68945,-2.607947 0.31836,-0.338883 22.069619,-0.439012 24.386619,-0.112261 2.46022,0.346948 4.26982,1.09768 6.49616,2.695009 1.06822,0.766414 2.11887,1.393482 2.33478,1.393482 0.21591,0 0.84908,-0.390764 1.40705,-0.868361 1.24515,-1.065801 3.63433,-2.360138 5.25916,-2.849137 8.3865,-2.523967 17.42908,3.76493 19.43847,13.51899 0.31639,1.535854 0.40733,3.611981 0.40733,9.299246 l 0,7.321948 1.23363,0 c 0.68754,0 1.45405,0.166722 1.73158,0.376639 1.16518,0.881294 1.13929,1.195087 1.13929,-13.808781 l 0,-14.201735 -1.34679,-0.157092 c -1.94948,-0.227389 -2.756,-1.472306 -1.68955,-2.607947 0.31989,-0.34064 22.08263,-0.443068 24.38672,-0.114778 2.46403,0.351078 4.27224,1.101937 6.49616,2.697526 2.12292,1.523122 2.62138,1.654558 3.32524,0.876797 1.53377,-1.694785 5.50047,-3.432599 8.48817,-3.71867 7.42297,-0.710747 14.87631,5.5584 16.65368,14.007734 0.28492,1.354437 0.3797,3.658049 0.3797,9.227681 l 0,7.422626 1.22558,0 c 0.69405,0 1.47284,0.173192 1.79572,0.399342 0.69149,0.484345 0.73884,1.420714 0.10101,1.997942 -0.41872,0.37893 -1.48779,0.424556 -9.94763,0.424556 -8.37658,0 -9.54845,-0.049 -10.08021,-0.421457 -0.55812,-0.39092 -0.65341,-0.39092 -1.31518,0 -0.62719,0.370487 -1.86214,0.421457 -10.21134,0.421457 -10.26364,0 -10.30974,-0.0061 -10.30019,-1.365111 0.007,-0.967825 0.40214,-1.256594 1.94859,-1.423329 l 1.49945,-0.161666 -0.058,-10.690629 c -0.0451,-8.329782 -0.14273,-11.093701 -0.4419,-12.515859 -0.6376,-3.031072 -1.50882,-4.370588 -2.84262,-4.370588 -1.20383,0 -1.57115,0.198781 -2.17612,1.177663 -1.10562,1.788934 -1.55399,5.070382 -1.70751,12.496557 l -0.14213,6.876153 -3.83027,5.309067 c -2.10665,2.919989 -4.04638,5.597667 -4.31051,5.950397 -0.26414,0.35273 -1.61314,2.226214 -2.99779,4.163294 -1.38464,1.937083 -2.60411,3.524368 -2.70993,3.5273 -0.10582,0.0029 -0.1924,-2.188006 -0.1924,-4.868754 0,-5.136426 -0.044,-5.309554 -1.13928,-4.481134 -0.41677,0.315228 -2.02829,0.376639 -9.8835,0.376639 -8.29035,0 -9.45575,-0.04918 -9.98724,-0.421457 -0.55812,-0.39092 -0.65341,-0.39092 -1.31519,0 -0.62684,0.370284 -1.85539,0.421457 -10.11826,0.421457 -5.99239,0 -9.58483,-0.09635 -9.90099,-0.265556 -0.34503,-0.184663 -0.49618,-0.538248 -0.49618,-1.160738 0,-1.025197 0.60776,-1.395546 2.29017,-1.395546 l 0.9741,0 0.15414,-1.346787 c 0.27064,-2.36476 0.19758,-17.677701 -0.0946,-19.818431 -0.56125,-4.112743 -1.56021,-6.339524 -2.9142,-6.496021 -1.94039,-0.224275 -2.74934,0.779808 -3.52787,4.378874 -0.41224,1.905727 -0.54176,3.728497 -0.65544,9.223574 -0.11811,5.709247 -0.21075,6.954772 -0.55692,7.487435 -0.22838,0.351427 -1.79171,2.522081 -3.47406,4.823677 -1.68236,2.301598 -4.56833,6.285144 -6.41327,8.852329 -1.84495,2.567182 -3.441029,4.673942 -3.546849,4.681689 -0.10582,0.0078 -0.1924,-8.858634 -0.1924,-19.703066 z m 41.143869,7.664036 1.312,-0.132105 0.0735,-9.235115 c 0.0764,-9.591386 -0.0942,-12.252373 -0.96468,-15.049117 -0.86145,-2.767828 -2.36723,-3.578671 -3.70138,-1.99313 -1.55844,1.8521 -1.95528,4.96795 -2.1297,16.721584 l -0.1437,9.684043 1.26756,0 c 0.69716,0 1.49131,0.163613 1.76479,0.363586 0.3796,0.277567 0.58151,0.293649 0.85343,0.06797 0.19591,-0.162587 0.94658,-0.35506 1.66817,-0.42772 z m 60.79783,0 1.312,-0.132105 0.0776,-9.106849 c 0.0819,-9.620615 -0.12502,-12.791933 -1.00071,-15.337166 -0.91326,-2.654416 -2.36722,-3.380868 -3.66937,-1.833347 -1.55378,1.846553 -1.94935,4.979473 -2.12757,16.849849 l -0.14346,9.555778 1.26638,0 c 0.6965,0 1.49012,0.163613 1.7636,0.363586 0.3796,0.277567 0.58151,0.293649 0.85343,0.06797 0.1959,-0.162587 0.94658,-0.35506 1.66817,-0.42772 z m 49.92461,-7.666633 0,-19.719748 -1.53683,-0.173872 c -1.17588,-0.133037 -1.60278,-0.29706 -1.81755,-0.698356 -0.37335,-0.697657 -0.10233,-1.67612 0.56294,-2.032154 0.38384,-0.20543 3.99311,-0.255828 12.63112,-0.176378 l 12.09371,0.11124 1.82371,0.644318 c 2.24115,0.791814 4.15652,2.039044 6.00441,3.909897 1.49691,1.51549 1.799,1.652139 2.30485,1.042611 0.44832,-0.540177 1.34184,-0.478528 2.00387,0.13826 0.30879,0.287679 0.55736,0.605136 0.55236,0.70546 -0.0192,0.385099 -0.83347,1.530812 -7.39471,10.404571 -5.27022,7.127696 -6.88511,9.145917 -7.31818,9.145917 -0.74289,0 -1.69601,-0.693451 -1.69601,-1.233931 0,-0.239387 0.70156,-1.416089 1.55902,-2.614897 l 1.55904,-2.179648 -0.10254,-6.156743 c -0.0921,-5.531507 -0.1613,-6.335816 -0.68129,-7.920112 -0.72575,-2.21121 -1.44873,-2.982453 -2.79588,-2.982453 -1.06483,0 -1.50643,0.339398 -2.16951,1.667452 -0.89334,1.789275 -1.22729,4.360456 -1.52677,11.755083 l -0.29947,7.394055 -4.94194,6.843413 c -6.46763,8.956138 -8.5935,11.845762 -8.71487,11.845762 -0.0547,0 -0.0995,-8.873887 -0.0995,-19.719747 z m 35.60251,-7.985594 -0.073,-27.833607 -1.31198,-0.132106 c -1.5093,-0.151972 -2.15119,-0.576869 -2.15119,-1.423944 0,-1.347344 0.35243,-1.394055 10.51777,-1.394055 10.15542,0 10.51777,0.04774 10.51777,1.385707 0,0.881676 -0.75294,1.393567 -2.18236,1.483666 l -1.28081,0.08073 -0.0685,6.780892 c -0.0376,3.72949 0.0335,6.882899 0.1582,7.007576 0.13124,0.131223 0.86225,0.03398 1.73595,-0.230929 3.4137,-1.035051 7.48108,-0.394119 11.02659,1.737558 2.10058,1.262935 4.94458,4.397749 6.22821,6.865048 1.90523,3.662082 2.11969,4.963594 2.27228,13.789291 l 0.13368,7.731035 1.38691,0.115013 c 1.58543,0.131478 1.94604,0.386977 1.94604,1.378846 0,1.369103 -0.1276,1.386034 -10.44558,1.386034 -10.33633,0 -10.65409,-0.04208 -10.65409,-1.41092 0,-0.866674 0.9183,-1.41092 2.38061,-1.41092 l 1.24035,0 -0.0985,-11.223229 c -0.0846,-9.633585 -0.16192,-11.467017 -0.54641,-12.944437 -0.76511,-2.940138 -2.05423,-4.217441 -3.67955,-3.645849 -2.04607,0.719564 -3.11686,6.568916 -3.14266,17.167481 l -0.009,3.591433 -4.3677,6.028478 c -4.8599,6.707829 -8.47155,11.663501 -9.06747,12.441749 -0.35368,0.461877 -0.40014,-2.26378 -0.46586,-27.320544 z m 85.73662,24.498704 0,-3.206637 -3.01424,-0.0038 c -1.71527,-0.0021 -3.69023,-0.163215 -4.58285,-0.373725 -4.00219,-0.943844 -7.80331,-3.784754 -9.39663,-7.022924 -0.75763,-1.53975 -0.83462,-1.912151 -0.82921,-4.010659 0.005,-1.960507 0.11052,-2.538368 0.69158,-3.789036 1.03316,-2.223846 2.95793,-4.087872 5.95868,-5.770689 1.41838,-0.79542 3.21379,-1.87323 3.9898,-2.395129 1.83712,-1.23554 5.56036,-5.072476 5.783,-5.959591 0.27072,-1.078586 -0.086,-2.372998 -0.89175,-3.23551 -0.60482,-0.647463 -0.935,-0.787424 -1.85167,-0.784923 -2.23459,0.0061 -5.29967,1.198616 -7.14408,2.779529 -0.6799,0.582772 -0.83559,0.859027 -0.64132,1.138036 0.14109,0.202649 0.47779,0.682341 0.74822,1.065986 1.00588,1.427027 0.40237,3.285543 -1.35482,4.17209 -2.26924,1.14489 -4.65229,-0.294279 -4.65229,-2.809611 0,-0.609433 0.3248,-1.303072 1.11707,-2.38565 2.36049,-3.225416 5.5072,-5.454467 8.88764,-6.295755 1.91318,-0.476132 5.89218,-0.407428 7.95246,0.137311 6.28947,1.662951 11.35111,6.831283 12.72437,12.992635 0.61259,2.748565 0.5686,2.643531 0.96858,2.311564 0.19101,-0.158518 0.41763,-0.80152 0.50362,-1.428895 0.82472,-6.016912 6.04523,-12.18436 11.77203,-13.907342 2.12223,-0.638498 4.73502,-0.589652 5.92004,0.110677 1.79864,1.062982 1.71691,1.377387 1.71691,-6.605671 l 0,-7.182866 -1.17124,0 c -1.54181,0 -2.16466,-0.354024 -2.15974,-1.227547 0.009,-1.516808 -0.36925,-1.459522 10.15078,-1.539173 8.39872,-0.06359 9.74043,-0.02092 10.27078,0.326577 0.71082,0.465752 0.80617,1.444961 0.19045,1.955962 -0.23078,0.191529 -1.00999,0.407682 -1.73159,0.48034 l -1.31197,0.132112 -0.12827,27.833606 -0.12827,27.833606 -3.70733,-5.066486 c -2.03901,-2.786567 -3.85692,-5.066485 -4.03975,-5.066485 -0.18285,0 -0.88105,0.390219 -1.55157,0.867154 -3.40884,2.424702 -7.38091,3.275594 -11.4036,2.442872 -5.67595,-1.174963 -10.97134,-6.691186 -12.4123,-12.929937 -0.56642,-2.452366 -0.58101,-2.490956 -0.87397,-2.309899 -0.14209,0.08782 -0.25835,0.768818 -0.25835,1.513335 0,1.342818 -0.0345,1.401438 -4.2969,7.31273 -2.36329,3.277483 -4.52777,6.288504 -4.80995,6.691158 -2.19444,3.131275 -4.6508,6.405056 -4.80996,6.410595 -0.10582,0.0037 -0.19239,-1.436289 -0.19239,-3.199939 z m -0.27554,-16.097316 c -0.0105,-5.39677 -0.0971,-10.313921 -0.1924,-10.927005 l -0.17339,-1.114696 -1.70652,1.769266 c -1.33735,1.386506 -1.7969,2.071633 -2.12421,3.166943 -0.95837,3.207253 -0.97638,13.449379 -0.0272,15.449735 0.5235,1.103196 1.17286,1.42849 2.8959,1.450703 l 1.34679,0.01736 -0.019,-9.812309 z m 32.1641,9.35399 c 1.40792,-1.555732 1.96726,-4.779485 2.14855,-12.383005 0.1622,-6.803416 -0.12275,-11.067832 -0.93531,-13.998269 -0.93803,-3.382774 -3.06311,-4.211141 -4.33784,-1.690896 -1.10167,2.178143 -1.3895,4.443809 -1.51238,11.905011 -0.15846,9.623265 0.43459,14.325359 2.01959,16.012512 0.69754,0.742501 2.01495,0.82034 2.61739,0.154647 z m 19.68308,3.455954 c -0.98867,-0.501118 -1.22537,-1.103129 -0.75643,-1.923961 0.22379,-0.391721 2.33055,-3.332763 4.68169,-6.535655 2.35115,-3.202889 4.2748,-6.061374 4.2748,-6.352186 0,-0.290813 -1.32029,-2.367203 -2.93394,-4.614201 -4.86065,-6.768312 -5.67447,-9.033552 -4.16855,-11.603191 1.83247,-3.126882 5.95382,-4.928776 11.20699,-4.89979 3.0914,0.01706 5.04457,0.55171 7.51525,2.057185 0.81772,0.498268 1.65131,0.842797 1.85243,0.765617 0.20115,-0.07718 0.77986,-0.716796 1.28605,-1.421371 0.50618,-0.704573 1.15007,-1.35396 1.43087,-1.443082 0.55288,-0.175482 1.70534,0.444658 1.93407,1.040739 0.16046,0.418153 0.25327,0.280303 -5.23957,7.783195 -2.30993,3.155233 -4.25759,5.887172 -4.32814,6.070974 -0.0705,0.183804 1.17045,2.148936 2.75771,4.366964 5.75989,8.048824 6.2839,10.236762 3.19219,13.328468 -2.41593,2.415944 -6.30904,3.631208 -10.90107,3.402862 -2.59633,-0.129104 -5.05669,-0.89605 -6.9346,-2.161655 -0.49131,-0.33111 -1.03985,-0.602017 -1.21896,-0.602017 -0.17911,0 -0.74237,0.580011 -1.25166,1.288914 -1.132,1.575657 -1.59847,1.858008 -2.39913,1.452191 z m 14.10027,-3.510698 c 0.33395,-0.333962 0.51306,-0.855102 0.51306,-1.492902 0,-0.822325 -0.33962,-1.444084 -2.11258,-3.867758 l -2.11261,-2.88792 -0.54266,0.630876 c -0.48962,0.569221 -0.52104,0.790523 -0.32154,2.264439 0.28652,2.116579 1.11871,4.611719 1.77199,5.312939 0.67198,0.721288 2.10281,0.741864 2.80434,0.04033 z m 1.53919,-22.047523 c 0,-0.8939 -0.65021,-3.408526 -1.30669,-5.053587 -0.71911,-1.801951 -1.49455,-2.501583 -2.52242,-2.275825 -0.95289,0.209288 -1.30151,0.78275 -1.30151,2.140833 0,0.823754 0.27051,1.39305 1.42939,3.00831 2.78631,3.883512 2.68275,3.777913 3.22413,3.287983 0.26241,-0.237476 0.4771,-0.735949 0.4771,-1.107714 z M 231.71959,56.287382 c -3.08168,-0.828741 -5.39279,-2.314822 -7.81475,-5.024994 -6.59923,-7.384541 -6.11033,-19.418894 1.06917,-26.317234 5.04293,-4.845457 12.19883,-5.680963 17.77703,-2.075606 1.6924,1.093858 2.14918,1.185663 2.83066,0.568927 0.39201,-0.354764 0.57969,-0.370123 1.2302,-0.100678 1.07714,0.446171 1.21471,1.131645 0.45515,2.268052 -0.34732,0.519657 -3.94421,5.504669 -7.99309,11.077803 l -7.3616,10.132972 0.13667,1.41092 c 0.17541,1.810742 1.03364,4.298507 1.74362,5.054253 0.46491,0.494879 0.81507,0.589428 2.18288,0.589428 0.94275,0 2.21321,-0.205281 3.0154,-0.487226 1.50488,-0.528926 4.21418,-2.213365 4.41915,-2.747498 0.07,-0.182383 -0.18308,-0.73846 -0.56236,-1.23573 -1.25887,-1.650459 -0.68531,-3.683908 1.30557,-4.62864 1.65708,-0.786334 3.62993,0.04621 4.38354,1.849863 0.45655,1.092691 0.30209,1.595945 -1.09549,3.569031 -2.16522,3.056879 -5.27188,5.243438 -8.68486,6.11265 -1.899,0.483635 -5.20638,0.475977 -7.03689,-0.01629 z M 235.505,36.480257 c 3.20124,-4.396622 3.16661,-4.287168 2.48428,-7.853343 -1.21007,-6.324502 -4.09248,-6.702633 -5.36952,-0.704408 -0.59835,2.810414 -0.91855,6.33423 -0.92367,10.16494 -0.005,3.964419 -0.35543,4.11216 3.80891,-1.607189 z m 101.39609,19.808097 c -5.04063,-1.355732 -9.55942,-5.893985 -11.47453,-11.523978 -0.91353,-2.685591 -1.14023,-7.193042 -0.51673,-10.274548 0.86905,-4.295033 3.94968,-8.925401 7.5752,-11.385903 3.1237,-2.119948 7.33458,-2.992628 10.6693,-2.21116 2.04974,0.480338 4.21591,1.412264 5.42335,2.333225 0.96599,0.736801 1.54052,0.792755 2.18169,0.212485 0.95486,-0.864132 2.86356,0.755117 2.08493,1.768751 -0.13406,0.174531 -2.53373,3.491901 -5.33261,7.371932 -5.35708,7.426472 -8.27517,11.446535 -9.65721,13.304068 l -0.83244,1.118852 0.4507,2.189561 c 0.47271,2.296506 1.11006,3.822611 1.85441,4.440217 0.552,0.458016 2.78788,0.391472 4.60604,-0.137085 1.4034,-0.407976 4.41136,-2.224456 4.63089,-2.796551 0.0743,-0.193712 -0.16007,-0.78725 -0.52091,-1.318972 -0.36083,-0.531723 -0.65608,-1.31221 -0.65608,-1.734417 0,-1.123962 0.87147,-2.347994 2.05007,-2.879469 1.27906,-0.576777 2.60371,-0.270253 3.67804,0.851102 1.17873,1.230346 1.16275,2.221576 -0.0655,4.060847 -2.18898,3.278024 -5.66608,5.829843 -9.02142,6.620753 -2.04912,0.483015 -5.31181,0.478571 -7.12723,-0.0097 z m 4.03774,-20.077814 c 2.06356,-2.845613 2.823,-4.089506 2.74088,-4.489291 -0.0625,-0.304156 -0.18878,-1.241528 -0.28067,-2.083047 -0.36071,-3.303028 -1.67015,-6.037628 -2.89105,-6.037628 -1.32386,0 -2.5676,2.708727 -3.12134,6.798071 -0.15287,1.128736 -0.35009,4.130148 -0.43829,6.669804 l -0.16038,4.617556 0.6482,-0.769592 c 0.3565,-0.423276 1.93271,-2.540919 3.50265,-4.705873 z"
     id="path4148"
     inkscape:connector-curvature="0" />
</svg>
