<?xml version="1.0" encoding="UTF-8" standalone="no"?>
<!-- Created with Inkscape (http://www.inkscape.org/) -->

<svg
   xmlns:dc="http://purl.org/dc/elements/1.1/"
   xmlns:cc="http://creativecommons.org/ns#"
   xmlns:rdf="http://www.w3.org/1999/02/22-rdf-syntax-ns#"
   xmlns:svg="http://www.w3.org/2000/svg"
   xmlns="http://www.w3.org/2000/svg"
   xmlns:sodipodi="http://sodipodi.sourceforge.net/DTD/sodipodi-0.dtd"
   xmlns:inkscape="http://www.inkscape.org/namespaces/inkscape"
   id="svg4136"
   version="1.1"
   inkscape:version="0.91 r13725"
   width="684.72925"
   height="225.99992"
   viewBox="0 0 684.72925 225.99992"
   sodipodi:docname="226-numbers.svg">
  <metadata
     id="metadata4142">
    <rdf:RDF>
      <cc:Work
         rdf:about="">
        <dc:format>image/svg+xml</dc:format>
        <dc:type
           rdf:resource="http://purl.org/dc/dcmitype/StillImage" />
        <dc:title></dc:title>
      </cc:Work>
    </rdf:RDF>
  </metadata>
  <defs
     id="defs4140" />
  <sodipodi:namedview
     pagecolor="#ffffff"
     bordercolor="#666666"
     borderopacity="1"
     objecttolerance="10"
     gridtolerance="10"
     guidetolerance="10"
     inkscape:pageopacity="0"
     inkscape:pageshadow="2"
     inkscape:window-width="2560"
     inkscape:window-height="1377"
     id="namedview4138"
     showgrid="false"
     fit-margin-top="0"
     fit-margin-left="0"
     fit-margin-right="0"
     fit-margin-bottom="0"
     inkscape:zoom="3.7844203"
     inkscape:cx="349.19806"
     inkscape:cy="166.67146"
     inkscape:window-x="2552"
     inkscape:window-y="-8"
     inkscape:window-maximized="1"
     inkscape:current-layer="svg4136" />
  <path
     style="fill:#000000"
     d="m 480.62751,225.06375 c -0.87846,-0.5122 -3.39405,-2.13497 -5.5902,-3.60617 -2.19616,-1.47119 -6.27115,-3.8351 -9.05556,-5.25311 l -5.06257,-2.57819 -3.72468,0 c -2.04861,0 -4.35243,0.2217 -5.11963,0.49265 -0.99734,0.35221 -5.43505,0.50329 -15.57011,0.53001 -7.79635,0.0206 -20.1048,0.26957 -27.35212,0.55334 -10.04469,0.39331 -14.64811,0.41012 -19.3661,0.0707 -6.24201,-0.4491 -14.88747,-0.0355 -16.43538,0.78625 -0.36465,0.19359 -1.87434,2.24097 -3.35482,4.54974 -1.48051,2.30877 -2.85316,4.19776 -3.05036,4.19776 -1.77494,0 -4.94328,-3.26687 -8.53246,-8.79781 -2.90966,-4.48375 -2.93696,-4.49661 -6.75408,-3.18332 -2.04746,0.70441 -2.71237,0.75095 -5.75256,0.40256 -4.43418,-0.50813 -15.26204,-0.51534 -16.58843,-0.0109 -0.63399,0.24104 -1.02425,0.69744 -1.02425,1.1979 0,0.69968 -0.25526,0.80716 -1.89668,0.79872 -2.66356,-0.014 -5.39735,-0.69789 -6.00772,-1.50356 -0.45812,-0.60467 -1.44078,-0.68279 -8.58497,-0.68243 -6.92789,3.4e-4 -8.24818,0.099 -9.34552,0.69878 -0.70286,0.3841 -1.63199,0.69837 -2.06477,0.69837 -0.43277,0 -2.49388,1.34818 -4.58025,2.99595 -2.08637,1.64779 -4.18498,3.14082 -4.66358,3.31786 -0.9854,0.36453 0.14725,0.48734 -23.35059,-2.53154 l -17.56924,-2.2572 -12.57799,0.52141 c -6.91789,0.28678 -19.20898,0.47112 -27.31353,0.40963 -9.06055,-0.0686 -15.74999,0.0518 -17.36958,0.31282 -1.755,0.28292 -6.36022,0.32175 -13.79935,0.11628 -10.46399,-0.28896 -11.30418,-0.25984 -13.37657,0.46358 -1.78031,0.62146 -3.66707,0.80767 -9.68072,0.95536 -8.70707,0.21385 -9.39899,0.11207 -9.57425,-1.40834 -0.0981,-0.85128 -0.39308,-1.15181 -1.32417,-1.34934 -2.15718,-0.45764 -5.53929,-0.35947 -8.38546,0.2434 -4.69391,0.99424 -7.41307,0.80708 -12.37819,-0.85201 -2.41577,-0.80722 -4.75167,-1.60865 -5.19091,-1.78096 -1.39869,-0.54868 -5.12332,-1.15684 -7.18741,-1.17354 -1.09807,-0.009 -5.49773,0.1267 -9.777,0.30143 -7.602868,0.31035 -7.844428,0.29558 -10.581481,-0.64667 l -2.80098,-0.9647 -22.36085,-0.0837 -22.360852,-0.0837 -3.256292,-1.01588 c -5.592448,-1.74466 -8.738305,-2.10425 -13.640384,-1.55917 -2.366686,0.26317 -7.798649,0.48124 -12.071039,0.48458 -4.27239,0.003 -8.0155999,0.16297 -8.3182599,0.35466 -0.97341,0.61656 -0.12727,1.1244 2.33821,1.40333 3.4408799,0.38929 2.9817599,1.04075 -0.68984,0.97883 -4.49025,-0.0758 -9.18001003,-0.54267 -8.48515003,-0.84481 0.32942,-0.1432 4.71198003,-1.44937 9.73902003,-2.9025 9.5204899,-2.75201 14.7263619,-4.60943 15.9160659,-5.67874 0.99582,-0.89504 0.864334,-1.87794 -0.337253,-2.52101 l -1.036028,-0.55447 0.996501,-0.26651 c 0.750872,-0.20081 15.60304,-0.1943 17.110038,0.008 0.144151,0.0193 0.168117,0.39448 0.05325,0.8337 -0.24949,0.95407 -0.08752,0.96517 3.153759,0.21628 6.242719,-1.44235 22.164681,-1.7807 26.478465,-0.56266 1.110499,0.31357 3.361506,0.3513 7.387063,0.12391 3.184434,-0.17991 7.227347,-0.29646 8.984277,-0.25898 1.756931,0.0374 7.327169,0.11612 12.37833,0.17498 5.05116,0.0588 14.03543,0.26538 19.96505,0.45909 9.80433,0.32031 10.98009,0.43379 12.97728,1.25277 3.11166,1.27596 4.94957,1.49006 8.80305,1.02554 2.9601,-0.35687 8.93205,-0.46622 17.55081,-0.32141 1.4275,0.024 4.39231,-0.25913 6.58846,-0.62915 5.88665,-0.9918 17.44623,-1.61099 24.98384,-1.33829 l 6.61597,0.23938 1.39158,-1.48844 c 2.19019,-2.34262 2.25356,-2.48077 3.16148,-6.89263 1.39704,-6.78879 4.91056,-12.95884 10.23008,-17.96497 3.58436,-3.3732 8.31729,-6.5517 16.89024,-11.34302 8.86975,-4.95721 9.93483,-5.73554 17.80789,-13.01351 10.17214,-9.40328 19.10801,-18.80488 22.79043,-23.97822 1.78622,-2.50939 4.46045,-5.9102 5.9427,-7.55732 10.58987,-11.76757 14.30844,-23.921654 10.74818,-35.130184 -2.47362,-7.78764 -9.73121,-14.3125 -18.40621,-16.5479 -5.49329,-1.41553 -12.47813,-1.20753 -18.10333,0.53912 -4.9739,1.54442 -10.52941,5.58839 -13.80229,10.04695 l -1.43916,1.96055 -2.5418,0 c -6.09761,0 -8.57061,1.50381 -8.57061,5.21169 0,1.95055 0.014,1.96981 4.69179,6.89596 4.53797,4.77801 6.48864,7.60643 6.48864,9.408394 0,1.2316 -1.32505,1.5795 -4.59197,1.20567 -1.5373,-0.17592 -3.96306,-0.33033 -5.39056,-0.34314 -3.89238,-0.035 -8.95293,-1.389154 -11.97902,-3.205574 -1.67252,-1.00394 -4.22836,-2.00813 -7.18742,-2.8239 -4.68566,-1.29175 -7.12496,-2.30033 -7.84299,-3.24282 -0.22139,-0.29056 -0.61147,-1.24704 -0.86688,-2.1255 -0.29844,-1.02646 -1.74937,-3.09542 -4.06034,-5.78987 -4.58877,-5.35093 -8.79204,-11.5564 -8.79204,-12.98079 0,-1.49557 2.08969,-3.39168 3.73576,-3.38972 0.69053,7.9e-4 4.02551,0.8094 7.41111,1.79685 7.33724,2.14 8.78739,2.22218 11.28311,0.63945 2.04671,-1.29799 3.02636,-2.48493 5.68078,-6.88277 3.4926,-5.786499 8.93174,-10.024463 19.08247,-14.868263 3.61325,-1.724196 8.26841,-4.370815 11.31674,-6.433948 4.67562,-3.164494 7.35684,-5.070074 18.55511,-13.187493 23.87745,-17.308301 37.32702,-26.796634 39.86862,-28.126262 0.7941,-0.415426 0.68107,-0.113472 -0.74202,1.982068 -2.1978,3.236407 -5.90771,10.751497 -7.78266,15.765194 -4.89918,13.100669 -5.74071,25.700138 -1.93638,28.992347 0.40682,0.352058 2.08124,1.31467 3.72094,2.139154 4.53573,2.280676 7.43611,4.385446 11.52853,8.366129 6.03908,5.874204 10.48816,13.459244 12.667,21.595424 0.83188,3.10643 1.11259,5.23419 1.26421,9.58323 0.48203,13.826634 -3.91439,24.799864 -15.49344,38.670664 -4.21453,5.04871 -8.84029,9.02807 -30.51683,26.25239 -12.36041,9.82167 -18.70472,15.32035 -23.98798,20.79058 -4.54721,4.70814 -8.55504,9.64853 -8.55504,10.54571 0,0.65379 -2.1301,0.25955 30.07936,5.56695 32.02881,5.27764 28.73686,5.19398 33.08747,0.84078 1.3426,-1.3434 5.96153,-6.84484 10.26426,-12.22541 12.02446,-15.03658 12.90126,-15.75551 13.14384,-10.77712 0.15943,3.27202 -0.31299,6.52756 -2.75178,18.96278 -1.07676,5.49039 -1.9597,10.59184 -1.9621,11.33657 -0.006,1.90754 2.50035,5.16092 4.16812,5.41018 1.40694,0.21027 14.22705,1.30707 19.72782,1.68777 l 3.73562,0.25853 -0.14195,-3.61513 c -0.15857,-4.03988 -0.54289,-4.76951 -3.23647,-6.14424 -0.92269,-0.47094 -1.4974,-1.05034 -1.4974,-1.50968 0,-1.2808 6.66508,-14.07659 8.80802,-16.90987 2.39962,-3.17268 19.3846,-19.63213 30.15853,-29.22543 7.95604,-7.08418 16.9318,-14.34415 22.80596,-18.44638 13.50143,-9.42878 22.55403,-20.6009 25.5135,-31.487124 0.94329,-3.46983 1.0551,-11.72461 0.20012,-14.77414 -2.43482,-8.6844 -9.0282,-15.03941 -18.47549,-17.80753 -2.50078,-0.73275 -4.27213,-0.88607 -12.1816,-1.05428 -12.47121,-0.26528 -16.90245,0.56993 -19.65468,3.70455 -1.6923,1.92742 -2.15518,3.75531 -1.95431,7.71767 0.2218,4.37597 0.92522,5.75367 4.8675,9.53354 2.48712,2.38464 3.33413,3.54479 4.82376,6.60689 0.99382,2.04287 1.80691,4.17231 1.80691,4.73211 0,3.242434 -4.72141,3.433984 -17.26771,0.7005 l -5.48835,-1.19573 -4.77215,0.6515 c -6.90153,0.94222 -10.21477,0.15301 -15.42884,-3.67549 -2.48837,-1.82711 -2.56325,-1.93422 -2.56325,-3.66668 0,-2.4387 -0.92661,-3.88955 -7.58568,-11.87734 -5.7948,-6.95108 -8.51946,-11.07632 -8.51946,-12.89883 0,-2.26182 3.25682,-5.62859 5.44478,-5.62859 0.58828,0 3.00292,0.75902 5.36585,1.6867 4.07063,1.59812 4.51644,1.68724 8.48892,1.69702 4.04319,0.009 4.28458,-0.0395 6.77153,-1.38721 3.03905,-1.64693 6.09183,-4.581846 10.92278,-10.501061 3.59103,-4.399999 6.90184,-7.228546 10.13515,-8.658774 3.50732,-1.551467 7.80487,-5.21407 30.26881,-25.796752 C 422.72912,4.495509 427.79863,0 428.25009,0 c 0.13215,0 -0.0868,0.763654 -0.48648,1.697019 -1.68728,3.940228 -2.20103,7.07202 -2.21065,13.476409 -0.014,8.945986 1.41054,15.261599 5.17869,22.967925 2.83029,5.788201 4.79796,7.905377 9.89466,10.6464 2.37671,1.2782 5.1439,2.889983 6.14934,3.581741 13.72039,9.439862 21.70057,26.189722 20.10093,42.190422 -0.92278,9.230714 -3.56719,16.229524 -9.38205,24.831064 -6.97315,10.315 -9.71276,12.92398 -33.27627,31.68977 -14.34077,11.42087 -19.67639,15.91429 -25.19397,21.21727 -5.36736,5.15857 -11.10308,12.22083 -10.59413,13.04431 0.11316,0.18294 14.63989,0.33261 32.2818,0.33261 l 32.07624,0 2.40492,-1.77038 c 2.77522,-2.04301 7.26132,-7.04947 12.78225,-14.26486 2.12712,-2.77995 3.92054,-5.00288 3.98543,-4.93984 0.0648,0.063 -0.41164,1.89741 -1.05899,4.07639 -1.9644,6.61247 -2.58107,10.5796 -2.59581,16.69904 -0.0109,4.45272 0.16494,6.30756 0.86329,9.11564 0.4822,1.93895 0.8767,3.86212 0.8767,4.27368 0,0.41157 0.20852,1.20595 0.4634,1.76532 0.39542,0.86784 0.72381,1.01705 2.23835,1.01705 0.97622,0 2.879,-0.28866 4.22839,-0.64148 1.77446,-0.46395 3.58641,-0.59258 6.54734,-0.46477 2.25167,0.0971 4.20888,0.29166 4.3494,0.43217 0.14056,0.14056 0.0283,0.52935 -0.24961,0.86408 -0.44794,0.5397 0.0559,0.6086 4.4504,0.6086 2.72552,0 7.1049,0.2681 9.73193,0.59576 7.88535,0.98355 19.92356,0.71989 19.48357,-0.42672 -0.11036,-0.2875 -1.52517,-1.51967 -3.1441,-2.73819 -13.47756,-10.144 -22.2117,-27.10446 -25.51149,-49.53962 -2.16361,-14.71018 -1.75732,-35.19353 0.99002,-49.91262 6.49431,-34.793774 24.04383,-55.014287 52.39507,-60.369489 5.30213,-1.00151 19.82238,-0.999051 24.80051,0.0047 4.51685,0.910265 9.17158,2.367764 13.22724,4.141707 3.63364,1.589369 7.43056,2.500537 10.46201,2.510654 3.77287,0.01245 6.03831,0.731793 7.70055,2.444642 3.27016,3.369678 5.71393,1.717814 18.07912,-12.220576 6.9444,-7.827886 9.9199,-10.980769 10.36305,-10.980769 0.49873,0 0.36476,2.028904 -0.30415,4.607885 -2.00992,7.748835 -12.17028,28.444964 -20.45027,41.656142 l -2.59334,4.13776 0.21489,2.4507 c 0.11815,1.34787 0.85612,4.75832 1.63977,7.57878 1.92085,6.9131 2.63979,10.55254 2.63979,13.36299 0,2.771014 -0.63529,4.868024 -1.47482,4.868024 -1.30803,0 -5.72896,-3.73537 -15.35281,-12.971974 -3.43538,-3.29716 -8.12153,-7.79167 -10.41368,-9.98782 -4.84129,-4.6385 -6.10108,-6.37558 -7.88628,-10.87425 -1.50153,-3.78384 -3.30086,-5.72598 -7.06498,-7.6257 -3.37693,-1.7043 -6.24268,-2.45883 -10.31551,-2.71604 -4.56073,-0.28802 -8.44413,0.49919 -12.77763,2.59021 -10.799,5.21076 -16.73838,14.18204 -19.95575,30.14272 -1.97721,9.808794 -3.30648,24.220494 -2.23391,24.220494 0.27068,0 1.82974,-1.33759 3.46456,-2.97243 12.45851,-12.45851 28.93459,-17.330784 46.56983,-13.77156 9.86968,1.99192 18.55221,6.66799 25.83673,13.91461 9.44779,9.39866 15.15013,22.5373 15.87197,36.57031 0.22246,4.32486 0.19382,4.518 -1.86305,12.57799 -1.91816,7.51636 -2.10616,8.66266 -2.29929,14.01967 -0.25058,6.95092 0.34391,10.35553 2.68881,15.39815 2.53025,5.44126 6.17374,10.28939 8.0085,10.65633 0.77452,0.15487 1.15634,0.50347 1.24629,1.1377 0.0965,0.68032 0.79409,1.23548 2.72515,2.1687 2.13938,1.0339 3.71814,1.40417 8.98427,2.10715 9.27433,1.23804 13.4622,1.61509 18.02565,1.62288 3.22727,0.005 4.09682,0.12857 4.27995,0.60587 0.12639,0.32943 0.6398,0.62765 1.1408,0.66268 0.50104,0.035 -0.97573,0.1975 -3.2817,0.36098 -2.30595,0.16348 -5.54031,0.46318 -7.18742,0.66601 -3.84575,0.47357 -6.90622,0.14632 -13.57623,-1.45149 -8.12526,-1.94645 -11.11501,-2.00811 -19.56574,-0.40342 -6.1997,1.17723 -7.79524,1.33084 -14.14759,1.362 -5.19144,0.0254 -7.20375,0.16701 -7.31967,0.51481 -0.33394,1.00175 2.14181,1.29612 10.63008,1.26398 4.75255,-0.0179 9.41439,0.0934 10.35965,0.24738 0.94522,0.1541 5.34753,0.0557 9.78288,-0.21832 6.46716,-0.39972 8.30146,-0.39908 9.26215,0.003 l 1.1979,0.50153 -1.59722,0.37448 c -0.87845,0.20596 -2.74546,0.74214 -4.14893,1.19151 -1.46707,0.46977 -3.50387,0.79678 -4.79161,0.76936 -2.84713,-0.0607 -6.43254,-0.7894 -6.43254,-1.30742 0,-0.26041 -3.27036,-0.30161 -9.4834,-0.11954 -6.10483,0.17892 -12.75527,0.0999 -18.66732,-0.22178 -5.05115,-0.27484 -14.844,-0.53229 -21.76189,-0.57207 -11.33273,-0.0652 -12.79541,-0.14928 -14.77415,-0.84981 -1.5936,-0.56416 -2.18077,-0.97012 -2.14012,-1.47964 0.0744,-0.93215 -0.41595,-1.00442 -8.57655,-1.264 -7.00313,-0.22277 -8.44977,-0.0206 -8.44977,1.1816 0,0.6575 -0.0753,0.68419 -0.96558,0.34253 -0.3474,-0.13324 -0.63161,-0.5158 -0.63161,-0.85004 0,-0.50132 -0.36285,-0.55953 -2.07338,-0.33263 -2.39117,0.3172 -2.71823,0.46579 -2.71823,1.23493 0,0.30874 -0.32739,0.73654 -0.7275,0.95067 -0.44389,0.23756 -9.9394,0.4217 -24.35736,0.47232 -16.89458,0.0593 -23.63171,0.20843 -23.6363,0.52313 -0.005,0.24208 0.89923,2.23702 2.00614,4.43317 2.37699,4.71615 2.87353,6.59091 1.74374,6.58364 -0.41177,-0.003 -1.46743,-0.42386 -2.34589,-0.93604 z m 2.18445,-13.04461 c 0.85563,-0.46639 -2.03894,-0.94229 -3.76348,-0.61876 -1.02392,0.19208 -1.31865,0.41706 -1.14368,0.87305 0.18979,0.4945 0.6339,0.56079 2.27781,0.34004 1.12315,-0.15083 2.30637,-0.41827 2.62935,-0.59433 z m 42.85918,-6.57777 c -0.47146,-0.33021 -1.18788,-0.45325 -1.75689,-0.30172 l -0.96083,0.25586 0.99825,0.24245 c 0.54904,0.13339 1.33966,0.26911 1.75689,0.30172 0.7236,0.0565 0.72189,0.0336 -0.0375,-0.49831 z m 38.25106,-17.21912 c 8.47394,-2.5142 15.31005,-9.67609 18.44911,-19.32835 1.55184,-4.77174 2.0094,-9.03218 1.76024,-16.38989 -0.26233,-7.74563 -0.9346,-10.69735 -3.72212,-16.34211 -1.52753,-3.09329 -2.47015,-4.38817 -5.10762,-7.0163 -1.77892,-1.77263 -4.22265,-3.77911 -5.43054,-4.45887 -7.83412,-4.40873 -18.14348,-4.60096 -26.35386,-0.49137 -10.52461,5.26793 -16.354,15.50476 -16.36446,28.73718 -0.009,12.14091 3.62757,21.63348 11.03911,28.81031 4.11291,3.98271 8.84271,6.37994 14.10997,7.15149 3.03141,0.44403 9.02716,0.0973 11.62017,-0.67209 z m 97.98794,24.71453 c -2.31758,-0.32997 -2.13539,-1.02631 0.19966,-0.763 1.20788,0.1362 2.82504,0.26186 3.59369,0.2792 1.14581,0.0258 1.25369,0.0932 0.59896,0.3747 -0.83566,0.3591 -2.36893,0.39717 -4.39231,0.10912 z m 5.59021,-0.10911 c -0.2978,-0.48183 1.27453,-0.48183 2.39581,0 0.64363,0.27656 0.51259,0.34862 -0.67521,0.37123 -0.81058,0.0156 -1.58487,-0.15161 -1.7206,-0.37123 z m -3.02238,-2.74347 c 0.36915,-0.68975 0.17908,-0.76403 -2.48158,-0.9699 -12.14502,-0.93965 -23.04606,-2.23198 -23.04606,-2.73216 0,-0.18842 0.26323,-0.34258 0.58491,-0.34258 0.32172,0 0.77724,-0.35937 1.01231,-0.79862 0.37609,-0.70277 0.83605,-0.79859 3.83317,-0.79859 3.25666,0 3.44788,0.0501 4.36631,1.14152 1.43101,1.70066 4.42913,1.95663 9.26438,0.79097 2.52913,-0.60973 3.69909,-1.07266 3.69909,-1.46371 0,-0.46542 0.46474,-0.51947 2.49562,-0.29016 5.21463,0.58875 5.95638,1.13253 2.19572,1.6097 -2.89126,0.36686 -3.49344,0.57527 -3.49344,1.20887 0,0.3516 0.67885,0.63801 1.89667,0.80024 1.04318,0.139 2.61543,0.39291 3.4939,0.56435 1.5962,0.31151 1.59651,0.31198 0.53789,0.74545 -0.58258,0.23855 -1.17718,0.6245 -1.32129,0.85767 -0.14413,0.23315 -0.97645,0.42392 -1.84968,0.42392 -1.42738,0 -1.54733,-0.0755 -1.18792,-0.74697 z m 11.60736,-0.0511 c -0.46874,-0.30336 -0.36537,-0.38897 0.47557,-0.39375 0.59096,-0.003 1.18555,-0.1858 1.32128,-0.40541 0.3087,-0.49948 5.78375,-0.51726 6.56763,-0.0213 0.45708,0.28915 0.37341,0.4081 -0.3993,0.56795 -2.18475,0.45196 -7.4015,0.61734 -7.96518,0.25254 z M 165.2408,195.35722 c -0.23251,-0.37625 3.21215,-1.14487 7.32604,-1.63468 2.07902,-0.24754 8.93377,0.35407 9.40515,0.82543 0.12079,0.12079 -2.17044,0.33415 -5.09181,0.47391 -2.92137,0.13978 -6.68315,0.35687 -8.35948,0.48242 -1.74118,0.13044 -3.14734,0.0674 -3.2799,-0.1471 z"
     id="path4148"
     inkscape:connector-curvature="0"
     sodipodi:nodetypes="csscssssssssssscsccscsscscsccssscsssscsccccssccsccsssccccssscssscssscssssssssssscsscsscsscscscssssssssssssssssssssssscsscccsssssssssssssscsssssssccssssccssssssscscsscccsscsscccsscsssscscssscsccssssssssssssssssssccsscscsssscccccccsccssssccsscscscscsccccccsccscccccssssssscssscssccccscccssscscssssscsccscscscsscscscc" />
</svg>
